0
SECTION
2
HEADER
9
$INSUNITS
70
4
9
$ACADVER
1
AC1014
9
$HANDSEED
5
FFFF
0
ENDSEC
0
SECTION
2
TABLES
0
TABLE
2
VPORT
5
8
100
AcDbSymbolTable
0
ENDTAB
0
TABLE
2
LTYPE
5
5
100
AcDbSymbolTable
0
LTYPE
5
14
100
AcDbSymbolTableRecord
100
AcDbLinetypeTableRecord
2
BYBLOCK
70
0
0
LTYPE
5
15
100
AcDbSymbolTableRecord
100
AcDbLinetypeTableRecord
2
BYLAYER
70
0
0
ENDTAB
0
TABLE
2
LAYER
5
2
100
AcDbSymbolTable
70
2
0
LAYER
5
50
100
AcDbSymbolTableRecord
100
AcDbLayerTableRecord
2
0
70
0
6
CONTINUOUS
0
ENDTAB
0
TABLE
2
STYLE
5
3
100
AcDbSymbolTable
70
1
0
STYLE
5
11
100
AcDbSymbolTableRecord
100
AcDbTextStyleTableRecord
2
STANDARD
70
0
0
ENDTAB
0
TABLE
2
VIEW
5
6
100
AcDbSymbolTable
70
0
0
ENDTAB
0
TABLE
2
UCS
5
7
100
AcDbSymbolTable
70
0
0
ENDTAB
0
TABLE
2
APPID
5
9
100
AcDbSymbolTable
70
2
0
APPID
5
12
100
AcDbSymbolTableRecord
100
AcDbRegAppTableRecord
2
ACAD
70
0
0
ENDTAB
0
TABLE
2
DIMSTYLE
5
A
100
AcDbSymbolTable
70
1
0
ENDTAB
0
TABLE
2
BLOCK_RECORD
5
1
100
AcDbSymbolTable
70
1
0
BLOCK_RECORD
5
1F
100
AcDbSymbolTableRecord
100
AcDbBlockTableRecord
2
*MODEL_SPACE
0
BLOCK_RECORD
5
1B
100
AcDbSymbolTableRecord
100
AcDbBlockTableRecord
2
*PAPER_SPACE
0
ENDTAB
0
ENDSEC
0
SECTION
2
BLOCKS
0
BLOCK
5
20
100
AcDbEntity
100
AcDbBlockBegin
2
*MODEL_SPACE
0
ENDBLK
5
21
100
AcDbEntity
100
AcDbBlockEnd
0
BLOCK
5
1C
100
AcDbEntity
100
AcDbBlockBegin
2
*PAPER_SPACE
0
ENDBLK
5
1D
100
AcDbEntity
100
AcDbBlockEnd
0
ENDSEC
0
SECTION
2
ENTITIES
0
LINE
5
100
100
AcDbEntity
8
0
100
AcDbLine
10
41.434303024714737
20
-105.63905474925122
30
0
11
29.864126050357022
21
-91.850254773109597
31
0
0
LINE
5
101
100
AcDbEntity
8
0
100
AcDbLine
10
29.864126050357022
20
-91.850254773109597
30
0
11
29.864126050357065
21
-35.450254773109613
31
0
0
LINE
5
102
100
AcDbEntity
8
0
100
AcDbLine
10
29.864126050357065
20
-35.450254773109613
30
0
11
40.729417853203515
21
-19.933009942202972
31
0
0
SPLINE
5
103
100
AcDbEntity
8
0
100
AcDbSpline
70
0
71
3
72
14
73
10
74
0
42
0.000000001
43
0.0000000001
44
0.0000000001
40
0
40
0
40
0
40
0
40
0.11704931068042464
40
0.11704931068042464
40
0.23495749194053617
40
0.23495749194053617
40
0.34151367767356589
40
0.34151367767356589
40
0.44070628884856083
40
0.44070628884856083
40
0.44070628884856083
40
0.44070628884856083
10
40.198721137930697
20
-15.968371119258482
30
0
10
40.498688426598157
20
-16.217866330666926
30
0
10
40.746263626336912
20
-16.524347883642506
30
0
10
41.109284232048957
20
-17.218325681906883
30
0
10
41.220121572479101
20
-17.599469659887731
30
0
10
41.282924817190143
20
-18.345043784457143
30
0
10
41.248647067157869
20
-18.701470490594971
30
0
10
41.061892317384114
20
-19.361383002796604
30
0
10
40.919066334637208
20
-19.662163841461769
30
0
10
40.729417853203515
20
-19.933009942202972
30
0
0
LINE
5
104
100
AcDbEntity
8
0
100
AcDbLine
10
40.198721137930697
20
-15.968371119258482
30
0
11
21.000000000000007
21
-1.3322676295501878e-14
31
0
0
LINE
5
105
100
AcDbEntity
8
0
100
AcDbLine
10
21.000000000000007
20
-1.3322676295501878e-14
30
0
11
1.7320507989656919
21
8.1748151552629264e-16
31
0
0
ARC
5
106
100
AcDbEntity
8
0
100
AcDbCircle
10
0
20
1.0000000149011543
30
0
40
1.9999999999999998
210
0
220
0
230
1
100
AcDbArc
50
-30.000000492926198
51
210.0000004929262
0
LINE
5
107
100
AcDbEntity
8
0
100
AcDbLine
10
-1.7320507989656919
20
-2.7755575615628914e-16
30
0
11
-21
21
-7.9936057773011271e-15
31
0
0
LINE
5
108
100
AcDbEntity
8
0
100
AcDbLine
10
-21
20
-7.9936057773011271e-15
30
0
11
-40.198721137930697
21
-15.968371119258471
31
0
0
SPLINE
5
109
100
AcDbEntity
8
0
100
AcDbSpline
70
0
71
3
72
14
73
10
74
0
42
0.000000001
43
0.0000000001
44
0.0000000001
40
0
40
0
40
0
40
0
40
0.11704931068042286
40
0.11704931068042286
40
0.23495749194053389
40
0.23495749194053389
40
0.34151367767356566
40
0.34151367767356566
40
0.44070628884856045
40
0.44070628884856045
40
0.44070628884856045
40
0.44070628884856045
10
-40.729417853203515
20
-19.933009942202958
30
0
10
-40.953206941528258
20
-19.613406001781335
30
0
10
-41.111460841888828
20
-19.252601172461283
30
0
10
-41.27918338705485
20
-18.487579412967847
30
0
10
-41.285876855509009
20
-18.090703052542164
30
0
10
-41.150381186503616
20
-17.354859355515089
30
0
10
-41.023569029942422
20
-17.019995744557072
30
0
10
-40.669830251344798
20
-16.432432354921879
30
0
10
-40.452926296910626
20
-16.17980407304006
30
0
10
-40.198721137930697
20
-15.968371119258471
30
0
0
LINE
5
110
100
AcDbEntity
8
0
100
AcDbLine
10
-40.729417853203515
20
-19.933009942202958
30
0
11
-29.864126050357068
21
-35.450254773109606
31
0
0
LINE
5
111
100
AcDbEntity
8
0
100
AcDbLine
10
-29.864126050357068
20
-35.450254773109606
30
0
11
-29.864126050357044
21
-91.850254773109597
31
0
0
LINE
5
112
100
AcDbEntity
8
0
100
AcDbLine
10
-29.864126050357044
20
-91.850254773109597
30
0
11
-41.434303024714758
21
-105.6390547492512
31
0
0
LINE
5
113
100
AcDbEntity
8
0
100
AcDbLine
10
-41.434303024714758
20
-105.6390547492512
30
0
11
-42.205875899968561
21
-105.63905474925119
31
0
0
SPLINE
5
114
100
AcDbEntity
8
0
100
AcDbSpline
70
0
71
3
72
14
73
10
74
0
42
0.000000001
43
0.0000000001
44
0.0000000001
40
0
40
0
40
0
40
0
40
0.11203921457558863
40
0.11203921457558863
40
0.2254414548395596
40
0.2254414548395596
40
0.33446430934678706
40
0.33446430934678706
40
0.44571162371099537
40
0.44571162371099537
40
0.44571162371099537
40
0.44571162371099537
10
-45.034303024714752
20
-108.46748187399737
30
0
10
-45.034303024714752
20
-108.09401782541207
30
0
10
-44.960335026194251
20
-107.72422531160606
30
0
10
-44.671273265930516
20
-107.03057357023238
30
0
10
-44.457384996901041
20
-106.71431433153279
30
0
10
-43.928398354840319
20
-106.19482200765734
30
0
10
-43.622451582168161
20
-105.99253140737974
30
0
10
-42.943930555606968
20
-105.7119808221026
30
0
10
-42.576700281182589
20
-105.63905474925119
30
0
10
-42.205875899968561
20
-105.63905474925119
30
0
0
LINE
5
115
100
AcDbEntity
8
0
100
AcDbLine
10
-45.034303024714752
20
-108.46748187399737
30
0
11
-45.034303024714745
21
-111.63905474925117
31
0
0
LINE
5
116
100
AcDbEntity
8
0
100
AcDbLine
10
-45.034303024714745
20
-111.63905474925117
30
0
11
-51.034303024714767
21
-126.63905474925119
31
0
0
LINE
5
117
100
AcDbEntity
8
0
100
AcDbLine
10
-51.034303024714767
20
-126.63905474925119
30
0
11
-51.03430302471476
21
-130.88553199400533
31
0
0
ARC
5
118
100
AcDbEntity
8
0
100
AcDbCircle
10
-51.034303024714745
20
-137.89074258996973
30
0
40
7.0052105959643995
210
0
220
0
230
1
100
AcDbArc
50
90.000000000000114
51
180
0
LINE
5
119
100
AcDbEntity
8
0
100
AcDbLine
10
-58.039513620679166
20
-137.8907425899697
30
0
11
-60.039513620679195
21
-139.8907425899697
31
0
0
LINE
5
120
100
AcDbEntity
8
0
100
AcDbLine
10
-60.039513620679195
20
-139.8907425899697
30
0
11
-60.039513620679195
21
-141.26560069111434
31
0
0
ARC
5
121
100
AcDbEntity
8
0
100
AcDbCircle
10
-61.039500369646305
20
-142.38364653180702
30
0
40
1.5000000000000107
210
0
220
-0
230
1
100
AcDbArc
50
48.190364175020854
51
311.80963582497861
0
LINE
5
122
100
AcDbEntity
8
0
100
AcDbLine
10
-60.039513620679188
20
-143.50169237249972
30
0
11
-60.039513620679195
21
-144.89074258996968
31
0
0
LINE
5
123
100
AcDbEntity
8
0
100
AcDbLine
10
-60.039513620679195
20
-144.89074258996968
30
0
11
-57.039513620679195
21
-144.8907425899697
31
0
0
LINE
5
124
100
AcDbEntity
8
0
100
AcDbLine
10
-57.039513620679195
20
-144.8907425899697
30
0
11
-57.039513620679195
21
-146.8907425899697
31
0
0
LINE
5
125
100
AcDbEntity
8
0
100
AcDbLine
10
-57.039513620679195
20
-146.8907425899697
30
0
11
-59.039513620679202
21
-148.8907425899697
31
0
0
LINE
5
126
100
AcDbEntity
8
0
100
AcDbLine
10
-59.039513620679202
20
-148.8907425899697
30
0
11
-59.039513620679202
21
-149.8907425899697
31
0
0
LINE
5
127
100
AcDbEntity
8
0
100
AcDbLine
10
-59.039513620679202
20
-149.8907425899697
30
0
11
-58.039513620679195
21
-150.8907425899697
31
0
0
LINE
5
128
100
AcDbEntity
8
0
100
AcDbLine
10
-58.039513620679195
20
-150.8907425899697
30
0
11
-58.039513620679195
21
-156.8907425899697
31
0
0
LINE
5
129
100
AcDbEntity
8
0
100
AcDbLine
10
-58.039513620679195
20
-156.8907425899697
30
0
11
-59.039513620679202
21
-157.8907425899697
31
0
0
LINE
5
130
100
AcDbEntity
8
0
100
AcDbLine
10
-59.039513620679202
20
-157.8907425899697
30
0
11
-59.039513620679202
21
-158.8907425899697
31
0
0
LINE
5
131
100
AcDbEntity
8
0
100
AcDbLine
10
-59.039513620679202
20
-158.8907425899697
30
0
11
-57.039513620679195
21
-160.8907425899697
31
0
0
LINE
5
132
100
AcDbEntity
8
0
100
AcDbLine
10
-57.039513620679195
20
-160.8907425899697
30
0
11
-57.039513620679195
21
-162.8907425899697
31
0
0
LINE
5
133
100
AcDbEntity
8
0
100
AcDbLine
10
-57.039513620679195
20
-162.8907425899697
30
0
11
-60.039513620679195
21
-162.8907425899697
31
0
0
LINE
5
134
100
AcDbEntity
8
0
100
AcDbLine
10
-60.039513620679195
20
-162.8907425899697
30
0
11
-60.039513620679195
21
-167.89074258996976
31
0
0
LINE
5
135
100
AcDbEntity
8
0
100
AcDbLine
10
-60.039513620679195
20
-167.89074258996976
30
0
11
-58.039513620679195
21
-169.8907425899697
31
0
0
LINE
5
136
100
AcDbEntity
8
0
100
AcDbLine
10
-58.039513620679195
20
-169.8907425899697
30
0
11
-58.039513620679195
21
-170.89074258996973
31
0
0
LINE
5
137
100
AcDbEntity
8
0
100
AcDbLine
10
-58.039513620679195
20
-170.89074258996973
30
0
11
-56.039513620679188
21
-170.89074258996973
31
0
0
LINE
5
138
100
AcDbEntity
8
0
100
AcDbLine
10
-56.039513620679188
20
-170.89074258996973
30
0
11
-55.039513620679195
21
-171.89074258996976
31
0
0
LINE
5
139
100
AcDbEntity
8
0
100
AcDbLine
10
-55.039513620679195
20
-171.89074258996976
30
0
11
-53.539513620679188
21
-171.89074258996976
31
0
0
LINE
5
140
100
AcDbEntity
8
0
100
AcDbLine
10
-53.539513620679188
20
-171.89074258996976
30
0
11
-53.539513620679188
21
-169.8907425899697
31
0
0
LINE
5
141
100
AcDbEntity
8
0
100
AcDbLine
10
-53.539513620679188
20
-169.8907425899697
30
0
11
-50.539513620679195
21
-169.8907425899697
31
0
0
LINE
5
142
100
AcDbEntity
8
0
100
AcDbLine
10
-50.539513620679195
20
-169.8907425899697
30
0
11
-50.539513620679195
21
-166.89074258996976
31
0
0
LINE
5
143
100
AcDbEntity
8
0
100
AcDbLine
10
-50.539513620679195
20
-166.89074258996976
30
0
11
-39.539513620679195
21
-166.89074258996976
31
0
0
LINE
5
144
100
AcDbEntity
8
0
100
AcDbLine
10
-39.539513620679195
20
-166.89074258996976
30
0
11
-39.539513620679195
21
-169.8907425899697
31
0
0
LINE
5
145
100
AcDbEntity
8
0
100
AcDbLine
10
-39.539513620679195
20
-169.8907425899697
30
0
11
-36.539513620679202
21
-169.8907425899697
31
0
0
LINE
5
146
100
AcDbEntity
8
0
100
AcDbLine
10
-36.539513620679202
20
-169.8907425899697
30
0
11
-36.539513620679202
21
-171.89074258996976
31
0
0
LINE
5
147
100
AcDbEntity
8
0
100
AcDbLine
10
-36.539513620679202
20
-171.89074258996976
30
0
11
-35.039513620679195
21
-171.89074258996976
31
0
0
LINE
5
148
100
AcDbEntity
8
0
100
AcDbLine
10
-35.039513620679195
20
-171.89074258996976
30
0
11
-34.039513620679202
21
-170.89074258996973
31
0
0
LINE
5
149
100
AcDbEntity
8
0
100
AcDbLine
10
-34.039513620679202
20
-170.89074258996973
30
0
11
-32.039513620679195
21
-170.89074258996973
31
0
0
LINE
5
150
100
AcDbEntity
8
0
100
AcDbLine
10
-32.039513620679195
20
-170.89074258996973
30
0
11
-32.039513620679195
21
-169.8907425899697
31
0
0
LINE
5
151
100
AcDbEntity
8
0
100
AcDbLine
10
-32.039513620679195
20
-169.8907425899697
30
0
11
-30.039513620679195
21
-167.89074258996976
31
0
0
LINE
5
152
100
AcDbEntity
8
0
100
AcDbLine
10
-30.039513620679195
20
-167.89074258996976
30
0
11
26.399999999999988
21
-167.89074258996976
31
0
0
LINE
5
153
100
AcDbEntity
8
0
100
AcDbLine
10
26.399999999999988
20
-167.89074258996976
30
0
11
51.034303024714738
21
-141.63905474925122
31
0
0
LINE
5
154
100
AcDbEntity
8
0
100
AcDbLine
10
51.034303024714738
20
-141.63905474925122
30
0
11
51.034303024714738
21
-126.63905474925122
31
0
0
LINE
5
155
100
AcDbEntity
8
0
100
AcDbLine
10
51.034303024714738
20
-126.63905474925122
30
0
11
45.034303024714717
21
-111.63905474925119
31
0
0
LINE
5
156
100
AcDbEntity
8
0
100
AcDbLine
10
45.034303024714717
20
-111.63905474925119
30
0
11
45.034303024714724
21
-108.46748187399739
31
0
0
SPLINE
5
157
100
AcDbEntity
8
0
100
AcDbSpline
70
0
71
3
72
14
73
10
74
0
42
0.000000001
43
0.0000000001
44
0.0000000001
40
0
40
0
40
0
40
0
40
0.11203921457558888
40
0.11203921457558888
40
0.22544145483956277
40
0.22544145483956277
40
0.33446430934679255
40
0.33446430934679255
40
0.44571162371099626
40
0.44571162371099626
40
0.44571162371099626
40
0.44571162371099626
10
42.205875899968532
20
-105.6390547492512
30
0
10
42.579339948553823
20
-105.6390547492512
30
0
10
42.949132462359827
20
-105.71302274777169
30
0
10
43.642784203733534
20
-106.00208450803542
30
0
10
43.959043442433128
20
-106.21597277706491
30
0
10
44.478535766308582
20
-106.74495941912565
30
0
10
44.680826366586174
20
-107.05090619179779
30
0
10
44.961376951863315
20
-107.72942721835901
30
0
10
45.034303024714724
20
-108.09665749278338
30
0
10
45.034303024714724
20
-108.46748187399739
30
0
0
LINE
5
158
100
AcDbEntity
8
0
100
AcDbLine
10
42.205875899968532
20
-105.6390547492512
30
0
11
41.434303024714737
21
-105.63905474925122
31
0
0
LWPOLYLINE
5
159
100
AcDbEntity
8
0
100
AcDbPolyline
90
35
70
1
43
0.0
10
46.034303024714738
20
-139.66044951948251
10
46.034303024714738
20
-127.60196676708746
10
40.034303024714717
20
-112.60196676708743
10
40.034303024714717
20
-110.63905474925124
10
39.102764733939793
20
-110.63905474925127
10
24.864126050357022
20
-93.670105944440607
10
24.864126050357061
20
-33.873760828714701
10
35.553303406214795
20
-18.608033494233485
10
19.192408588563467
20
-5.0000000000000089
10
1.7320507989656884
20
-5
42
-0.088666670315881019
10
-1.9428902930940239e-15
20
-4.6904157630003658
42
-0.088666670315881019
10
-1.732050798965691
20
-4.9999999999999991
10
-19.192408588563467
20
-5.0000000000000071
10
-35.553303406214802
20
-18.608033494233474
10
-24.864126050357068
20
-33.873760828714687
10
-24.864126050357058
20
-93.670105944440621
10
-39.102764733939814
20
-110.63905474925124
10
-40.034303024714745
20
-110.63905474925123
10
-40.034303024714745
20
-112.60196676708742
10
-46.034303024714767
20
-127.60196676708743
10
-46.03430302471476
20
-130.88553199400531
42
-0.41421356237309553
10
-51.034303024714745
20
-135.88553199400533
42
0.6766101950271296
10
-52.418890015924397
20
-139.34118679708041
10
-52.968445808813712
20
-139.8907425899697
10
-52.039513620679195
20
-139.89074258996973
10
-52.039513620679195
20
-148.96181040183518
10
-53.039513620679195
20
-149.96181040183518
10
-53.039513620679195
20
-157.81967477810423
10
-52.039513620679195
20
-158.81967477810423
10
-52.039513620679195
20
-161.89074258996976
10
-34.539513620679195
20
-161.89074258996976
10
-34.539513620679195
20
-164.8907425899697
10
-34.110581432544627
20
-164.8907425899697
10
-32.110581432544627
20
-162.89074258996976
10
24.235244528990599
20
-162.89074258996976
0
LWPOLYLINE
5
160
100
AcDbEntity
8
0
100
AcDbPolyline
90
4
70
1
43
0.0
10
-13.745000000000031
20
-120.32905474925121
10
-13.745000000000001
20
-147.94905474925122
10
13.744999999999997
20
-147.94905474925122
10
13.744999999999973
20
-120.32905474925123
0
LWPOLYLINE
5
161
100
AcDbEntity
8
0
100
AcDbPolyline
90
4
70
1
43
0.0
10
26.745000000000015
20
-145.94905474925122
10
18.745000000000012
20
-145.94905474925122
10
18.745000000000012
20
-147.94905474925122
10
26.745000000000015
20
-147.94905474925122
0
LWPOLYLINE
5
162
100
AcDbEntity
8
0
100
AcDbPolyline
90
4
70
1
43
0.0
10
26.745000000000015
20
-142.74905474925123
10
18.745000000000012
20
-142.74905474925123
10
18.745000000000012
20
-144.74905474925123
10
26.745000000000015
20
-144.74905474925123
0
LWPOLYLINE
5
163
100
AcDbEntity
8
0
100
AcDbPolyline
90
4
70
1
43
0.0
10
26.745000000000015
20
-139.54905474925121
10
18.745000000000012
20
-139.54905474925121
10
18.745000000000012
20
-141.54905474925124
10
26.745000000000015
20
-141.54905474925124
0
LWPOLYLINE
5
164
100
AcDbEntity
8
0
100
AcDbPolyline
90
4
70
1
43
0.0
10
26.745000000000015
20
-136.34905474925122
10
18.745000000000012
20
-136.34905474925122
10
18.745000000000012
20
-138.34905474925122
10
26.745000000000015
20
-138.34905474925122
0
LWPOLYLINE
5
165
100
AcDbEntity
8
0
100
AcDbPolyline
90
4
70
1
43
0.0
10
26.745000000000015
20
-133.14905474925123
10
18.745000000000012
20
-133.14905474925123
10
18.745000000000012
20
-135.14905474925121
10
26.745000000000015
20
-135.14905474925121
0
LWPOLYLINE
5
166
100
AcDbEntity
8
0
100
AcDbPolyline
90
3
70
1
43
0.0
10
26.290970488081737
20
-131.94905474925122
10
18.745000000000012
20
-131.94905474925122
10
18.745000000000012
20
-115.32905474925121
0
LWPOLYLINE
5
167
100
AcDbEntity
8
0
100
AcDbPolyline
90
3
70
1
43
0.0
10
-26.290970488081737
20
-131.94905474925122
10
-18.745000000000012
20
-131.94905474925122
10
-18.745000000000012
20
-115.32905474925121
0
LWPOLYLINE
5
168
100
AcDbEntity
8
0
100
AcDbPolyline
90
4
70
1
43
0.0
10
-26.745000000000015
20
-133.14905474925123
10
-18.745000000000012
20
-133.14905474925123
10
-18.745000000000012
20
-135.14905474925121
10
-26.745000000000015
20
-135.14905474925121
0
LWPOLYLINE
5
169
100
AcDbEntity
8
0
100
AcDbPolyline
90
4
70
1
43
0.0
10
-26.745000000000015
20
-136.34905474925122
10
-18.745000000000012
20
-136.34905474925122
10
-18.745000000000012
20
-138.34905474925122
10
-26.745000000000015
20
-138.34905474925122
0
LWPOLYLINE
5
170
100
AcDbEntity
8
0
100
AcDbPolyline
90
4
70
1
43
0.0
10
-26.745000000000015
20
-139.54905474925121
10
-18.745000000000012
20
-139.54905474925121
10
-18.745000000000012
20
-141.54905474925124
10
-26.745000000000015
20
-141.54905474925124
0
LWPOLYLINE
5
171
100
AcDbEntity
8
0
100
AcDbPolyline
90
4
70
1
43
0.0
10
-26.745000000000015
20
-142.74905474925123
10
-18.745000000000012
20
-142.74905474925123
10
-18.745000000000012
20
-144.74905474925123
10
-26.745000000000015
20
-144.74905474925123
0
LWPOLYLINE
5
172
100
AcDbEntity
8
0
100
AcDbPolyline
90
4
70
1
43
0.0
10
-26.745000000000015
20
-145.94905474925122
10
-18.745000000000012
20
-145.94905474925122
10
-18.745000000000012
20
-147.94905474925122
10
-26.745000000000015
20
-147.94905474925122
0
LWPOLYLINE
5
173
100
AcDbEntity
8
0
100
AcDbPolyline
90
5
70
1
43
0.0
10
-13.500000000000028
20
-85.329054749251213
10
13.499999999999975
20
-85.329054749251213
10
13.499999999999959
20
-67.329054749251185
10
-3.7747582837255322e-14
20
-56.001209728357836
10
-13.50000000000003
20
-67.329054749251213
0
LWPOLYLINE
5
174
100
AcDbEntity
8
0
100
AcDbPolyline
90
9
70
1
43
0.0
10
-5.9781989079524278
20
-57.101292359128294
10
-1.9244555528673746
20
-53.699797804989053
10
-3.8302694349567901e-14
20
-52.084987860360989
10
1.924455552867304
20
-53.699797804989053
10
5.9781989079523523
20
-57.10129235912828
10
7.6864531634536455
20
-58.534687874876454
10
8.3245233399520195
20
-59.070092324641443
42
2.7611316018501153
10
-8.3245233399520764
20
-59.070092324641472
10
-7.6864531634537112
20
-58.534687874876468
0
LWPOLYLINE
5
175
100
AcDbEntity
8
0
100
AcDbPolyline
90
47
70
1
43
0.0
10
41.088448304875278
20
-42.286076385777029
10
42.288448304875281
20
-40.96202288302203
10
42.288448304875281
20
-38.529607548423087
10
42.288448304875281
20
-35.881500542913138
10
41.088448304875278
20
-33.997877850372141
10
41.088448304875278
20
-27.440869616294904
10
41.088448304875278
20
-26.538469616294904
10
42.288448304875274
20
-26.538469616294908
10
42.288448304875274
20
-24.997871517292136
10
38.862616646067835
20
-22.599078365157599
10
29.864126050357068
20
-35.450254773109606
10
29.864126050357044
20
-91.850254773109597
10
40.146191243899551
20
-104.10394290680175
10
42.288448304875303
20
-102.40192093012629
10
42.288448304875303
20
-99.886076385777031
10
41.088448304875278
20
-99.886076385777031
10
41.088448304875278
20
-98.983676385777031
10
41.088448304875278
20
-96.286076385777037
10
42.288448304875288
20
-94.962022883022016
10
42.288448304875281
20
-92.529607548423073
10
42.288448304875281
20
-89.88150054291313
10
41.088448304875278
20
-87.997877850372134
10
41.088448304875278
20
-87.286076385777022
10
42.288448304875288
20
-85.962022883022016
10
42.288448304875281
20
-83.529607548423073
10
42.288448304875281
20
-80.88150054291313
10
41.088448304875278
20
-78.997877850372134
10
41.088448304875278
20
-78.286076385777022
10
42.288448304875281
20
-76.962022883022016
10
42.288448304875281
20
-74.529607548423073
10
42.288448304875281
20
-71.881500542913145
10
41.088448304875278
20
-69.997877850372149
10
41.088448304875278
20
-69.286076385777037
10
42.288448304875281
20
-67.96202288302203
10
42.288448304875281
20
-65.529607548423087
10
42.288448304875281
20
-62.881500542913138
10
41.088448304875278
20
-60.997877850372141
10
41.088448304875278
20
-60.286076385777029
10
42.288448304875281
20
-58.962022883022023
10
42.288448304875281
20
-56.52960754842308
10
42.288448304875281
20
-53.88150054291313
10
41.088448304875278
20
-51.997877850372134
10
41.088448304875271
20
-51.286076385777022
10
42.288448304875274
20
-49.96202288302203
10
42.288448304875281
20
-47.529607548423087
10
42.288448304875281
20
-44.881500542913138
10
41.088448304875278
20
-42.997877850372141
0
LWPOLYLINE
5
176
100
AcDbEntity
8
0
100
AcDbPolyline
90
47
70
1
43
0.0
10
-41.088448304875278
20
-42.286076385777029
10
-42.288448304875281
20
-40.96202288302203
10
-42.288448304875281
20
-38.529607548423087
10
-42.288448304875281
20
-35.881500542913138
10
-41.088448304875278
20
-33.997877850372141
10
-41.088448304875278
20
-27.440869616294904
10
-41.088448304875278
20
-26.538469616294904
10
-42.288448304875274
20
-26.538469616294908
10
-42.288448304875274
20
-24.997871517292136
10
-38.862616646067835
20
-22.599078365157599
10
-29.864126050357068
20
-35.450254773109606
10
-29.864126050357044
20
-91.850254773109597
10
-40.146191243899551
20
-104.10394290680175
10
-42.288448304875303
20
-102.40192093012629
10
-42.288448304875303
20
-99.886076385777031
10
-41.088448304875278
20
-99.886076385777031
10
-41.088448304875278
20
-98.983676385777031
10
-41.088448304875278
20
-96.286076385777037
10
-42.288448304875288
20
-94.962022883022016
10
-42.288448304875281
20
-92.529607548423073
10
-42.288448304875281
20
-89.88150054291313
10
-41.088448304875278
20
-87.997877850372134
10
-41.088448304875278
20
-87.286076385777022
10
-42.288448304875288
20
-85.962022883022016
10
-42.288448304875281
20
-83.529607548423073
10
-42.288448304875281
20
-80.88150054291313
10
-41.088448304875278
20
-78.997877850372134
10
-41.088448304875278
20
-78.286076385777022
10
-42.288448304875281
20
-76.962022883022016
10
-42.288448304875281
20
-74.529607548423073
10
-42.288448304875281
20
-71.881500542913145
10
-41.088448304875278
20
-69.997877850372149
10
-41.088448304875278
20
-69.286076385777037
10
-42.288448304875281
20
-67.96202288302203
10
-42.288448304875281
20
-65.529607548423087
10
-42.288448304875281
20
-62.881500542913138
10
-41.088448304875278
20
-60.997877850372141
10
-41.088448304875278
20
-60.286076385777029
10
-42.288448304875281
20
-58.962022883022023
10
-42.288448304875281
20
-56.52960754842308
10
-42.288448304875281
20
-53.88150054291313
10
-41.088448304875278
20
-51.997877850372134
10
-41.088448304875271
20
-51.286076385777022
10
-42.288448304875274
20
-49.96202288302203
10
-42.288448304875281
20
-47.529607548423087
10
-42.288448304875281
20
-44.881500542913138
10
-41.088448304875278
20
-42.997877850372141
0
ENDSEC
0
SECTION
2
OBJECTS
0
DICTIONARY
5
C
100
AcDbDictionary
3
ACAD_GROUP
350
D
3
ACAD_MLINESTYLE
350
17
0
DICTIONARY
5
D
100
AcDbDictionary
0
DICTIONARY
5
1A
330
C
100
AcDbDictionary
0
DICTIONARY
5
17
100
AcDbDictionary
0
ENDSEC
0
EOF
